<?xml version="1.0" encoding="UTF-8" standalone="no"?>
<!-- Created with Inkscape (http://www.inkscape.org/) -->

<svg
   width="8.2677164in"
   height="4.3000002in"
   viewBox="0 0 210 109.22"
   version="1.1"
   id="svg4182"
   xml:space="preserve"
   xmlns="http://www.w3.org/2000/svg"
   xmlns:svg="http://www.w3.org/2000/svg"><defs
     id="defs4179" /><g
     id="layer1"><path
       style="fill:#000000;stroke-width:0.290043"
       d="m 104.37564,107.94882 c -0.11122,-0.11496 -0.20223,-21.195848 -0.20223,-46.846445 0,-25.650587 -0.0914,-46.731896 -0.20309,-46.84734 -0.26365,-0.27247 -0.89616,2.82921 -0.91982,4.5104 -0.01,0.716508 -0.13628,2.109728 -0.28048,3.096064 -0.37358,2.555447 -1.01351,7.568283 -2.03576,15.946731 -0.15828,1.2974 -0.40679,3.287715 -0.55222,4.42294 -0.14542,1.135227 -0.40686,3.324579 -0.580963,4.865229 -0.1741,1.540659 -0.491513,4.12808 -0.705362,5.749827 -0.426467,3.234142 -0.824608,6.433814 -1.293444,10.394773 -0.167905,1.418551 -0.423066,3.507995 -0.567024,4.64322 -0.143959,1.135226 -0.387831,3.125541 -0.541939,4.422941 -0.884362,7.445326 -1.28306,10.065656 -1.583153,10.404736 -0.484443,0.547403 -1.292998,0.117406 -1.292998,-0.687622 0,-0.757796 0.973339,-9.194977 1.410133,-12.223449 0.152039,-1.054128 0.410505,-3.07763 0.574367,-4.49665 0.611123,-5.292203 0.915839,-7.788452 1.16081,-9.509327 0.138512,-0.973042 0.450396,-3.49412 0.693072,-5.602386 0.242674,-2.108268 0.565553,-4.76203 0.717509,-5.897258 0.301498,-2.25243 0.661711,-5.240225 1.155345,-9.583036 0.175121,-1.540648 0.496362,-4.061727 0.713867,-5.602387 0.36734,-2.60202 0.52528,-3.886648 1.30503,-10.615054 0.15975,-1.378486 0.34771,-2.995908 0.41769,-3.594275 0.07,-0.598365 0.0137,-1.160434 -0.125,-1.249044 -0.23512,-0.150181 -0.59613,0.890484 -1.16868,3.369001 -0.36069,1.5614 -1.649371,6.497763 -2.001384,7.666433 -0.170969,0.567607 -0.425818,1.562769 -0.566332,2.211476 -0.140513,0.648693 -0.383252,1.643855 -0.539422,2.211463 -0.156168,0.567608 -0.536805,2.027181 -0.845861,3.243493 -0.309055,1.216301 -0.77695,3.007598 -1.039759,3.98064 -0.262814,0.973052 -0.846809,3.228749 -1.297766,5.012669 -0.450957,1.783919 -1.160027,4.504025 -1.575709,6.044686 -0.415686,1.540658 -0.858695,3.265603 -0.984465,3.83321 -0.125774,0.567607 -0.480319,1.960837 -0.787877,3.096063 -0.572406,2.112792 -1.746321,6.624607 -3.222216,12.38423 -0.457126,1.783921 -1.102923,4.238646 -1.435103,5.454957 -0.332179,1.216302 -0.706715,2.675875 -0.832298,3.243482 -0.125585,0.567618 -0.491191,2.027192 -0.812459,3.243492 -1.342514,5.082689 -1.532061,5.797348 -1.798741,6.781845 -0.153753,0.567607 -0.386789,1.496427 -0.517859,2.064036 -0.131071,0.567606 -0.55595,2.226218 -0.944174,3.685779 -1.686812,6.341719 -1.992693,7.510767 -2.608945,9.971187 -0.740344,2.95588 -1.322309,3.84954 -2.030337,3.11779 -0.463055,-0.47856 -0.377292,-0.90822 2.024092,-10.140343 0.379652,-1.459572 1.069086,-4.113336 1.532078,-5.897255 1.786033,-6.881631 2.716607,-10.434772 3.204839,-12.236802 0.153785,-0.567607 0.349981,-1.363742 0.435987,-1.769176 0.14764,-0.695968 1.713554,-6.724752 2.412504,-9.288167 0.708629,-2.598923 0.816389,-3.01472 1.222683,-4.717809 0.232131,-0.973042 0.761539,-3.02971 1.176465,-4.57037 0.414923,-1.540659 0.861645,-3.265602 0.992716,-3.833209 0.13107,-0.567609 0.363313,-1.496429 0.516093,-2.064048 0.152783,-0.567607 0.53638,-2.027179 0.852439,-3.243481 0.316062,-1.216311 0.789733,-3.007599 1.052608,-3.980651 0.262873,-0.973041 0.585404,-2.233585 0.716733,-2.801193 0.131328,-0.567607 0.363786,-1.496427 0.516566,-2.064034 0.152783,-0.567607 0.535128,-2.027181 0.849652,-3.243493 0.772619,-2.987806 1.639444,-6.310603 2.365337,-9.067028 0.33099,-1.256845 0.853406,-3.280348 1.160922,-4.49665 0.307521,-1.216312 0.692802,-2.675885 0.856182,-3.243493 0.16338,-0.567607 0.347629,-1.629113 0.409441,-2.358904 l 0.112392,-1.326877 -0.613196,1.326877 c -0.337258,0.729791 -0.722955,1.625435 -0.857105,1.990326 -0.13415,0.36489 -0.368756,0.961996 -0.521345,1.326888 -0.15259,0.364889 -0.547767,1.393218 -0.87817,2.285183 -0.330404,0.891954 -0.796389,2.086157 -1.035522,2.653764 -0.239133,0.567607 -0.535753,1.297388 -0.659153,1.621746 -0.123399,0.324347 -0.559664,1.402446 -0.969475,2.395771 -0.409811,0.993324 -0.745112,1.890416 -0.745112,1.993535 0,0.103088 -0.256773,0.78314 -0.570607,1.51116 -0.313835,0.728009 -0.827382,1.919314 -1.141218,2.647334 -0.313833,0.72802 -0.570607,1.408041 -0.570607,1.51116 0,0.103089 -0.3353,1.000212 -0.745113,1.993535 -0.40981,0.993324 -0.846369,2.071424 -0.970131,2.39577 -0.123759,0.324348 -0.494589,1.218553 -0.824061,1.987106 -0.329473,0.768563 -0.599041,1.528578 -0.599041,1.688935 0,0.160346 -0.311412,0.991096 -0.692025,1.846107 -0.964999,2.167756 -1.411126,3.264298 -2.431934,5.977496 -0.919593,2.444169 -0.988449,2.61556 -1.983083,4.935739 -0.329472,0.768562 -0.599042,1.590028 -0.599042,1.825487 0,0.23546 -0.109342,0.497945 -0.242985,0.58331 -0.133642,0.08537 -0.466721,0.789805 -0.740176,1.565422 -0.273456,0.77563 -0.666461,1.808293 -0.873347,2.294826 -0.206886,0.486521 -1.550982,3.870065 -2.98688,7.518991 -1.435903,3.648927 -2.785206,6.81841 -2.998457,7.043304 -0.488058,0.514715 -1.286518,0.222197 -1.292112,-0.473359 -0.0036,-0.449644 1.167472,-3.669232 2.443359,-6.717374 0.203648,-0.486521 3.667189,-9.243948 7.696754,-19.460934 4.029568,-10.216988 7.570025,-19.132988 7.867683,-19.813332 0.297661,-0.680344 0.541198,-1.312065 0.541198,-1.403817 0,-0.09172 0.242013,-0.729302 0.537804,-1.416779 0.295796,-0.687465 0.835522,-2.046081 1.199399,-3.019122 0.363875,-0.973052 0.8272,-2.1009 1.029608,-2.506334 0.202413,-0.405434 0.36881,-0.833346 0.369778,-0.950919 9.66e-4,-0.117574 0.386918,-1.082881 0.85767,-2.145133 0.470751,-1.062263 0.855913,-2.035907 0.855913,-2.163677 0,-0.127759 0.315537,-0.908282 0.701198,-1.734506 0.997688,-2.137387 1.202364,-3.088629 0.61441,-2.855443 -0.252833,0.100302 -0.459696,0.289832 -0.459696,0.421257 0,0.131428 -0.577741,1.248901 -1.283869,2.483277 -0.706128,1.234378 -1.283869,2.309693 -1.283869,2.389587 0,0.07991 -0.302653,0.64 -0.672562,1.244675 -0.369906,0.604673 -1.384056,2.359952 -2.253664,3.90061 -1.559143,2.762278 -2.17313,3.877433 -3.571633,6.486975 -0.391106,0.729792 -0.808625,1.459574 -0.927825,1.621747 -0.209124,0.284528 -0.698457,1.164658 -2.213127,3.98064 -0.39254,0.729792 -0.929331,1.658612 -1.19287,2.064045 -0.263537,0.405435 -0.698089,1.201569 -0.965672,1.769176 -0.267581,0.567608 -0.996508,1.874636 -1.619833,2.904513 -0.62333,1.029878 -1.133326,1.919682 -1.133326,1.977354 0,0.05762 -0.366881,0.747924 -0.81529,1.533906 -0.44841,0.785982 -1.13871,2.019189 -1.533995,2.740455 -0.395287,0.721268 -1.166898,2.107521 -1.714693,3.080573 -1.40108,2.488727 -4.147484,7.420142 -4.999936,8.977819 -0.394718,0.721265 -1.106157,1.981799 -1.580976,2.801192 -0.474817,0.819394 -1.331876,2.352274 -1.904575,3.406413 -0.572701,1.054128 -2.456867,4.437684 -4.187036,7.518991 -1.73017,3.08132 -3.471561,6.199494 -3.869764,6.929275 -0.398198,0.729791 -1.766292,3.167086 -3.040206,5.416218 -1.273916,2.249133 -2.316208,4.146313 -2.316208,4.215955 0,0.451115 -2.064439,3.341786 -2.386606,3.341786 -0.955428,0 -1.042684,-0.756449 -0.274963,-2.383712 0.414377,-0.878314 0.90781,-1.795967 1.096518,-2.039227 0.188713,-0.243261 0.820396,-1.352096 1.403746,-2.464085 0.583349,-1.111979 1.564414,-2.872441 2.180144,-3.912126 0.615728,-1.039683 1.119507,-1.937144 1.119507,-1.99437 0,-0.05717 0.851962,-1.613968 1.89325,-3.459438 1.041286,-1.845482 2.145253,-3.819815 2.453262,-4.387433 0.308005,-0.567608 0.836204,-1.495704 1.173769,-2.062441 0.337567,-0.566727 0.870533,-1.524679 1.184368,-2.128773 0.313834,-0.604094 1.596248,-2.926858 2.849806,-5.161692 1.253557,-2.234845 2.423289,-4.328713 2.599406,-4.653061 0.176115,-0.324357 0.770421,-1.385863 1.320678,-2.358904 2.56966,-4.544057 4.363605,-7.779225 4.986899,-8.993308 0.374666,-0.729793 1.188618,-2.169506 1.80879,-3.199383 0.620172,-1.029879 1.127584,-1.914556 1.127584,-1.965953 0,-0.05137 0.577741,-1.10341 1.283869,-2.337786 0.706128,-1.234389 1.283868,-2.309703 1.283868,-2.389598 0,-0.0799 0.302654,-0.639989 0.672563,-1.244674 0.369909,-0.604674 1.384056,-2.359941 2.253666,-3.900601 1.559142,-2.762288 2.173127,-3.877443 3.571631,-6.486985 0.391107,-0.729781 0.808627,-1.459562 0.927824,-1.621736 0.230226,-0.313236 0.434298,-0.680399 2.950024,-5.307527 0.881725,-1.621747 1.73141,-3.147661 1.888185,-3.390922 0.827369,-1.283791 1.952414,-3.794874 1.644173,-3.669778 -0.195866,0.07946 -1.14461,1.236262 -2.108322,2.570593 -0.963712,1.334332 -2.835381,3.885633 -4.15927,5.669554 -1.323884,1.783919 -3.707384,5.034779 -5.296664,7.224132 -1.58928,2.189354 -2.997136,4.113337 -3.128567,4.27551 -0.456398,0.563149 -9.354222,12.683326 -9.849318,13.416249 -0.27388,0.405433 -0.914052,1.282889 -1.42261,1.949893 -0.50856,0.667016 -2.27269,3.055398 -3.92029,5.307528 -1.647597,2.252141 -3.068036,4.161134 -3.156525,4.242221 -0.0885,0.08113 -1.115614,1.460788 -2.282494,3.065985 -3.687191,5.072258 -3.88081,5.325859 -4.500097,5.894302 -0.497252,0.456431 -0.684539,0.489765 -1.039799,0.185043 -0.238319,-0.204411 -0.433309,-0.505043 -0.433309,-0.668063 0,-0.261003 2.712393,-4.260777 3.149299,-4.644056 0.09243,-0.08113 1.08197,-1.407963 2.198967,-2.948623 1.751822,-2.416265 2.906479,-3.987894 6.12624,-8.338586 0.333596,-0.450768 0.873302,-1.200921 1.199338,-1.666991 0.326039,-0.466071 1.226316,-1.689517 2.000614,-2.718759 0.774295,-1.029254 3.013307,-4.060712 4.975581,-6.736597 1.962274,-2.675875 4.161098,-5.661364 4.886279,-6.634405 1.988131,-2.667671 5.467746,-7.390362 9.559044,-12.97396 2.020129,-2.75696 4.290556,-5.838157 5.045394,-6.847104 0.754841,-1.008939 1.372436,-2.0027196 1.372436,-2.2083898 0,-0.2056701 -14.443359,14.5520868 -32.096349,32.7950158 C 44.153121,60.329755 29.45588,75.374169 29.145573,75.518857 28.337519,75.895649 27.622831,75.241572 28.015027,74.484198 28.175158,74.174974 42.487596,59.250641 59.820448,41.319023 77.153301,23.387404 91.334724,8.6563366 91.334724,8.5833184 c 0,-0.2261759 -1.30269,0.5827415 -2.31583,1.4380416 -0.530843,0.44814 -3.342742,2.703836 -6.248665,5.012657 -6.618351,5.258449 -6.620902,5.260488 -10.408231,8.323954 -1.726091,1.396194 -4.293829,3.449954 -5.706084,4.563916 -1.412256,1.113962 -4.814508,3.829366 -7.560561,6.034221 -2.746051,2.204856 -5.942264,4.769699 -7.10269,5.699644 -1.160429,0.929956 -2.251717,1.823516 -2.425086,1.985689 -0.173369,0.162174 -0.828765,0.685917 -1.456434,1.163868 -0.627669,0.477949 -1.20541,0.943898 -1.283869,1.035438 -0.13147,0.153381 -4.378794,3.510413 -6.808496,5.381337 -1.232154,0.94879 -1.91654,1.031771 -2.112788,0.256187 -0.19377,-0.765799 0.382729,-1.284493 9.039315,-8.132915 4.079753,-3.22759 5.321689,-4.220323 6.183705,-4.942938 0.775559,-0.650142 15.786501,-12.63888 22.33357,-17.837069 0.763816,-0.606457 1.871453,-1.500707 2.461414,-1.987228 0.589959,-0.48652 2.578888,-2.078779 4.419843,-3.538351 1.840952,-1.459573 3.832367,-3.0518309 4.425364,-3.5383524 0.592995,-0.4865206 1.810049,-1.4777494 2.704561,-2.2027381 1.617488,-1.3109287 1.770278,-2.0863459 0.18058,-0.916461 -0.458033,0.337074 -0.905321,0.6128648 -0.993971,0.6128648 -0.08865,0 -1.224313,0.64476 -2.523695,1.4328039 -1.29938,0.7880439 -2.940253,1.7674918 -3.646382,2.1765598 -0.706127,0.409078 -3.064414,1.820976 -5.240636,3.137576 -2.176225,1.316591 -3.989335,2.393799 -4.029133,2.393799 -0.0398,0 -1.249237,0.729792 -2.687644,1.621747 -1.438406,0.891965 -2.671993,1.621745 -2.741304,1.621745 -0.06932,0 -0.828473,0.464411 -1.687029,1.032018 -0.858553,0.567619 -1.629586,1.032017 -1.713407,1.032017 -0.159585,0 -4.385484,2.53492 -6.21691,3.729233 -0.585075,0.38154 -1.142997,0.693707 -1.239826,0.693707 -0.09683,0 -0.516839,0.244697 -0.933355,0.543758 -0.416516,0.29906 -1.591818,1.011935 -2.61178,1.584156 -1.691049,0.948712 -3.760221,2.182634 -4.85017,2.89231 -0.458373,0.298459 -6.331393,3.815414 -7.988517,4.783784 -2.017004,1.17869 -14.4854,8.603789 -16.975597,10.10921 -1.412258,0.853763 -3.017093,1.814824 -3.566304,2.135693 -0.54921,0.32086 -1.833079,1.080385 -2.853041,1.687822 -1.019963,0.607449 -2.432218,1.441041 -3.138345,1.852436 -0.706128,0.411385 -1.491539,0.880376 -1.745358,1.042192 -0.692528,0.441509 -1.448793,0.02184 -1.341673,-0.744525 0.08905,-0.637048 2.264976,-2.154026 6.082723,-4.24065 0.784587,-0.428826 1.591401,-0.916919 1.792919,-1.084653 0.201518,-0.167735 0.980767,-0.649842 1.731665,-1.071356 1.140185,-0.640046 13.512236,-8.032973 14.877535,-8.89009 0.235377,-0.147764 1.076636,-0.650354 1.869465,-1.116882 0.792829,-0.466516 2.012503,-1.184261 2.710388,-1.594978 0.697886,-0.410715 3.772427,-2.240439 6.832314,-4.066061 3.059886,-1.825612 5.972315,-3.55801 6.472065,-3.84976 0.499749,-0.29175 1.428002,-0.869298 2.062784,-1.283447 0.634785,-0.414149 1.213493,-0.752994 1.286021,-0.752994 0.07252,0 1.583622,-0.880231 3.357991,-1.956078 5.433738,-3.294613 11.987135,-7.208564 13.639731,-8.1462 0.863045,-0.489663 1.761754,-1.053415 1.997128,-1.252788 0.235377,-0.199363 0.561736,-0.412968 0.725247,-0.474674 0.163511,-0.06174 1.742857,-0.974669 3.509663,-2.0288072 1.766805,-1.0541288 3.879795,-2.2978342 4.695533,-2.7637822 2.731839,-1.560441 4.281934,-2.660729 3.922759,-2.7844544 -0.195848,-0.067535 -0.632297,0.011925 -0.969887,0.1763828 -1.196467,0.5829642 -2.929982,1.3569105 -5.606623,2.5031469 -10.084347,4.3185161 -13.019134,5.5917441 -14.487643,6.2853381 -0.828463,0.391304 -1.574639,0.711449 -1.658164,0.711449 -0.08352,0 -0.817945,0.313971 -1.632045,0.697719 -0.814099,0.383746 -2.2505,1.00254 -3.192004,1.375087 -0.941503,0.372558 -1.840211,0.772129 -1.997129,0.887942 -0.156917,0.115813 -0.606271,0.311308 -0.998565,0.434431 -0.392293,0.123135 -1.483581,0.580401 -2.425085,1.016147 -0.941503,0.435758 -2.161178,0.96368 -2.710389,1.173174 -0.549212,0.209492 -1.676105,0.697284 -2.504212,1.083983 -0.828104,0.3867 -1.567727,0.703079 -1.643605,0.703079 -0.07589,0 -0.746402,0.27861 -1.49005,0.619117 -0.743645,0.340506 -1.608859,0.725357 -1.922693,0.855201 -0.313835,0.129854 -1.196466,0.52315 -1.961401,0.874011 -0.764938,0.350849 -2.048806,0.905172 -2.853041,1.231837 -0.804238,0.326654 -1.847411,0.764217 -2.318163,0.97235 -0.470751,0.208132 -2.011394,0.877668 -3.42365,1.487868 -1.412255,0.610189 -2.952898,1.281664 -3.42365,1.49217 -3.146023,1.406794 -3.797588,1.588459 -4.145109,1.155688 -0.54237,-0.675408 -0.108205,-1.287682 1.357334,-1.914143 0.748689,-0.320045 1.584188,-0.714602 1.856666,-0.876798 0.272476,-0.162196 0.622325,-0.294904 0.777442,-0.294904 0.155117,0 1.151854,-0.412186 2.214979,-0.915971 1.06312,-0.503782 2.895849,-1.311707 4.072728,-1.795397 1.17688,-0.48369 2.653328,-1.12007 3.280997,-1.414193 1.151111,-0.53939 8.649774,-3.796045 11.554819,-5.01823 0.863046,-0.363096 2.130837,-0.917475 2.817313,-1.231948 0.686479,-0.314484 1.906154,-0.839052 2.710391,-1.165717 0.804237,-0.326654 1.847409,-0.770224 2.31816,-0.985702 2.146087,-0.982346 8.43657,-3.690294 8.572455,-3.690294 0.08329,0 1.205673,-0.481639 2.494151,-1.0703211 3.269595,-1.4937971 3.855174,-1.7513334 5.516765,-2.4262168 0.804236,-0.3266651 2.088105,-0.8809883 2.853042,-1.2318367 0.764936,-0.3508597 1.647565,-0.7436557 1.961399,-0.8728863 0.313836,-0.1292307 1.312343,-0.5804123 2.218909,-1.0026296 0.906563,-0.4222173 1.705175,-0.7676718 1.774694,-0.7676718 0.06952,0 0.86843,-0.3574014 1.775351,-0.7942178 2.092116,-1.0076747 1.398718,-1.1976123 -1.375657,-0.3768261 -1.160974,0.3434709 -3.523119,1.0026184 -5.24921,1.4647884 -1.726088,0.4621588 -4.358019,1.1889752 -5.848734,1.6151489 -1.490715,0.4261624 -4.186838,1.1758694 -5.991387,1.666023 -3.513547,0.954352 -3.528169,0.9583974 -7.845865,2.1713221 -1.569173,0.4408174 -4.265297,1.1875038 -5.991387,1.6593138 -2.723869,0.744536 -6.54358,1.805897 -9.415037,2.616108 -0.470752,0.13283 -2.075589,0.576991 -3.566303,0.987026 -7.518367,2.068025 -9.768826,2.689528 -12.125427,3.348641 -5.244418,1.466817 -6.872073,1.912805 -7.845863,2.149836 -0.549211,0.133676 -1.704694,0.448563 -2.567739,0.699724 -0.863045,0.251173 -2.532075,0.73737 -3.708954,1.080429 -1.176879,0.343058 -2.621232,0.747467 -3.209671,0.898685 -0.588441,0.151208 -1.551342,0.398012 -2.13978,0.548451 -0.5884412,0.150426 -2.2895671,0.627875 -3.7802813,1.060981 -5.3895006,1.565857 -5.94547753,1.649474 -6.3755562,0.958798 -0.59560121,-0.956469 -0.84894904,-0.86144 10.7977705,-4.050482 3.823785,-1.047006 7.515811,-2.079927 10.556254,-2.953325 1.255338,-0.360611 2.731787,-0.762334 3.280998,-0.892723 0.54921,-0.130379 1.704691,-0.442567 2.567737,-0.69374 0.863045,-0.251173 2.532074,-0.737359 3.708953,-1.080417 1.176882,-0.34307 2.589136,-0.733336 3.138347,-0.86727 0.965748,-0.235527 5.663271,-1.528312 7.703212,-2.11998 0.549211,-0.159287 1.447919,-0.404665 1.99713,-0.545273 0.54921,-0.14061 1.512112,-0.405992 2.139781,-0.58973 0.62767,-0.183738 1.59057,-0.448328 2.139781,-0.587979 0.549211,-0.139651 2.21824,-0.608274 3.708954,-1.0413794 1.490715,-0.4331163 3.159743,-0.8983064 3.708954,-1.0337668 0.549211,-0.1354603 1.44792,-0.3759234 1.99713,-0.5343523 0.54921,-0.1584402 1.961465,-0.5584243 3.138344,-0.8888451 1.176881,-0.3304319 2.910105,-0.8195268 3.851608,-1.0869037 1.600182,-0.4544135 2.153596,-0.5987559 4.921497,-1.2836025 0.588439,-0.1456017 1.711825,-0.4696814 2.49641,-0.7201855 1.571984,-0.5018998 4.28476,-1.2552511 9.272386,-2.5749895 1.804549,-0.4774868 3.601964,-1.02204069 3.994259,-1.21012064 0.912941,-0.43769929 38.220313,-0.34429463 39.347043,0.0985167 0.71981,0.28289206 6.30419,1.83956284 8.29875,2.31331194 0.5492,0.1304565 1.76887,0.4632956 2.71039,0.7396548 0.9415,0.2763592 2.09699,0.6090645 2.56774,0.7393539 0.47074,0.1302893 2.33236,0.6446487 4.13691,1.143038 1.80456,0.4983894 4.50067,1.2483862 5.99139,1.6666584 1.49071,0.418272 4.12264,1.148053 5.84873,1.6217463 1.7261,0.4736822 4.35802,1.205302 5.84873,1.6258134 1.49072,0.420524 4.12264,1.14685 5.84873,1.614058 1.7261,0.467218 4.80737,1.311074 6.84731,1.875225 2.03992,0.564153 4.73606,1.305435 5.99138,1.64729 1.25534,0.341856 3.11697,0.874625 4.13692,1.183938 1.01996,0.309313 2.6248,0.758066 3.5663,0.997225 1.6213,0.411841 3.83756,1.018922 7.70321,2.110082 2.95766,0.834852 3.35525,0.945894 6.27669,1.752928 6.26308,1.730159 7.16404,1.97606 7.9613,2.172961 0.9736,0.240441 1.47964,0.93447 1.21029,1.659893 -0.22054,0.593964 0.0248,0.63394 -5.31998,-0.866522 -2.11839,-0.594689 -4.30096,-1.192297 -4.85017,-1.328014 -0.54922,-0.135705 -2.02567,-0.538309 -3.28099,-0.89465 -4.83555,-1.372658 -7.53029,-2.125007 -10.55627,-2.94722 -2.89018,-0.785324 -4.38658,-1.201857 -12.12542,-3.375208 -1.49072,-0.41864 -4.37941,-1.215856 -6.41934,-1.771594 -4.21563,-1.148443 -7.80971,-2.151051 -11.12686,-3.103931 -1.25534,-0.360611 -2.73179,-0.764653 -3.281,-0.897872 -1.25095,-0.3034408 -4.738,-1.2535021 -6.98995,-1.9044472 -0.94152,-0.2721467 -2.61054,-0.7389529 -3.70896,-1.0373334 -2.71019,-0.7362222 -8.1896,-2.2695822 -10.6989,-2.9939915 -0.54922,-0.1585515 -1.51211,-0.4057681 -2.13979,-0.549375 -0.62767,-0.1435958 -2.22303,-0.5994803 -3.54525,-1.0130496 -1.32221,-0.4135804 -2.64736,-0.7519582 -2.94475,-0.7519582 -0.48062,0 -0.49315,0.049147 -0.11275,0.4422884 0.23537,0.2432603 0.56727,0.4422883 0.73752,0.4422883 0.17025,0 0.53248,0.124394 0.80496,0.2764372 0.27248,0.1520321 2.61379,1.160323 5.20292,2.240618 2.58914,1.0803061 5.15687,2.1636435 5.70609,2.4073941 0.5492,0.243773 1.25534,0.5487955 1.56917,0.6778479 3.85049,1.583298 6.78205,2.821064 7.75889,3.275946 0.65829,0.306549 1.2649,0.557365 1.34804,0.557365 0.0831,0 0.99211,0.398067 2.01993,0.884589 1.02782,0.48652 2.03246,0.884587 2.23252,0.884587 0.20007,0 0.48572,0.112001 0.63479,0.248888 0.14907,0.136886 1.04136,0.555438 1.98287,0.930124 0.94149,0.374675 2.22537,0.914031 2.85303,1.198559 0.62766,0.28454 2.81026,1.199518 4.85018,2.033299 2.03993,0.833791 4.09411,1.69715 4.56486,1.9186 0.47076,0.22144 4.70753,2.01871 9.41504,3.993925 4.70753,1.975213 8.72432,3.754141 8.92623,3.953168 0.47471,0.46791 0.14639,1.35116 -0.50224,1.35116 -0.45321,0 -2.0922,-0.602277 -4.42973,-1.627787 -0.47076,-0.206516 -1.88301,-0.800916 -3.13835,-1.320869 -1.25533,-0.519954 -2.66758,-1.118943 -3.13835,-1.331089 -0.47075,-0.212145 -5.15686,-2.198526 -10.41359,-4.41418 -5.25674,-2.215655 -9.94285,-4.204676 -10.41361,-4.420041 -0.47075,-0.215377 -3.16688,-1.349701 -5.99138,-2.520733 -2.82452,-1.171021 -5.64903,-2.363865 -6.27669,-2.650767 -0.62768,-0.286902 -2.33314,-1.001895 -3.78994,-1.5888809 -1.45678,-0.5869877 -3.19,-1.3166793 -3.85159,-1.6215349 -0.6616,-0.3048553 -2.07119,-0.900658 -3.13244,-1.324001 -1.06124,-0.4233539 -2.5056,-1.0349706 -3.20966,-1.3591504 -0.70409,-0.3241911 -1.85649,-0.85481 -2.5609,-1.1791571 -1.91343,-0.8810328 -2.444,-0.745695 -1.12384,0.2866567 0.6164,0.4820182 1.20178,0.8800855 1.30086,0.8845879 0.0991,0.00446 1.9607,1.0862349 4.13691,2.4038056 2.17623,1.3175707 4.66289,2.8012381 5.52595,3.2970201 0.86304,0.495792 2.70896,1.607124 4.10204,2.469646 1.39307,0.862511 2.58681,1.568209 2.65276,1.568209 0.066,0 0.78778,0.432504 1.60404,0.961094 0.81629,0.528613 1.86931,1.157626 2.34006,1.397811 0.47076,0.240195 1.52378,0.869208 2.34005,1.397811 0.81629,0.528601 1.54139,0.961094 1.61135,0.961094 0.07,0 0.94274,0.509956 1.9395,1.133263 1.70092,1.063602 2.51104,1.543135 5.8779,3.479253 0.74536,0.428626 1.67616,1.004748 2.06845,1.280282 0.3923,0.275524 1.80455,1.134914 3.13835,1.909752 3.82151,2.220011 4.86291,2.83505 6.40435,3.782314 0.79285,0.487212 2.14765,1.283056 3.01069,1.768529 0.86304,0.485451 1.77186,1.063088 2.0196,1.283625 0.24773,0.220525 0.53094,0.400965 0.62937,0.400965 0.0984,0 0.80119,0.379166 1.56169,0.842607 0.76051,0.463429 1.95374,1.175067 2.65163,1.581381 0.69788,0.406325 2.72986,1.619429 4.51552,2.695744 1.78563,1.076328 3.29694,1.956971 3.35843,1.956971 0.0616,0 0.5905,0.312791 1.17559,0.695088 1.71328,1.119501 7.99472,4.891718 10.657,6.39988 0.8826,0.499985 2.01345,1.264346 2.51297,1.698566 0.83319,0.724254 0.87375,0.837758 0.49081,1.37346 -0.46814,0.654901 -0.62133,0.603102 -3.75259,-1.268747 -0.78458,-0.469024 -2.06846,-1.221183 -2.85304,-1.671473 -0.78458,-0.450291 -1.55491,-0.919503 -1.71182,-1.042694 -0.15692,-0.12319 -0.73466,-0.487279 -1.28387,-0.809073 -0.54922,-0.321795 -1.83309,-1.082078 -2.85305,-1.689516 -1.01995,-0.607448 -2.4322,-1.440627 -3.13834,-1.8515 -0.70614,-0.410883 -2.18258,-1.299449 -3.28099,-1.9746 -1.09842,-0.67514 -3.34164,-2.014375 -4.98491,-2.976083 -3.20663,-1.876618 -3.25919,-1.907968 -5.33644,-3.182867 -0.75686,-0.464522 -1.94713,-1.180025 -2.64501,-1.590007 -0.69789,-0.40998 -1.89111,-1.124593 -2.65163,-1.588023 -0.76049,-0.463429 -1.44402,-0.842607 -1.51894,-0.842607 -0.075,0 -0.6149,-0.31279 -1.19999,-0.695088 -1.10349,-0.721055 -5.68561,-3.500672 -7.55444,-4.582706 -0.58844,-0.340708 -1.55135,-0.898218 -2.13978,-1.238914 -1.86884,-1.082033 -6.45095,-3.861651 -7.55444,-4.582704 -0.58508,-0.3823 -1.12256,-0.69509 -1.19439,-0.69509 -0.0719,0 -1.7476,-0.995162 -3.7239,-2.211474 -1.97631,-1.216303 -3.63481,-2.211465 -3.68557,-2.211465 -0.0507,0 -3.07314,-1.791297 -6.71639,-3.980651 -3.64326,-2.1893543 -6.71114,-3.9835939 -6.81752,-3.9872047 -0.10643,-0.00334 -0.51437,-0.2660283 -0.90666,-0.5831649 -0.39229,-0.3171365 -0.89686,-0.5795652 -1.12125,-0.5831649 -0.47324,-0.0078 1.30853,1.6244655 3.85574,3.5317883 1.56973,1.1754122 6.15814,4.7718162 8.53503,6.6898022 0.47076,0.379858 0.9843,0.789983 1.14122,0.911391 0.15691,0.121407 1.31239,1.025018 2.56773,2.008033 1.25533,0.983015 3.62996,2.838839 5.27696,4.124046 1.64699,1.285207 3.3802,2.701028 3.8516,3.146269 0.4714,0.445231 0.9238,0.810109 1.00534,0.810857 0.15296,0.0011 1.33614,0.915959 6.10532,4.719169 1.52522,1.216301 3.39451,2.675873 4.15399,3.243481 0.75946,0.56762 2.45168,1.888155 3.76046,2.934547 1.30879,1.046383 3.5351,2.811336 4.94735,3.922111 1.41225,1.110775 2.9529,2.329839 3.42366,2.709029 0.47075,0.379188 1.43364,1.142057 2.13977,1.695277 0.90722,0.710767 1.28388,1.217706 1.28388,1.727997 0,0.533639 -0.14896,0.71585 -0.57062,0.697985 -0.46144,-0.0195 -5.27624,-3.595801 -10.27095,-7.628864 -1.81311,-1.464042 -11.34003,-8.945777 -12.4074,-9.743862 -0.43378,-0.324348 -1.99215,-1.5427 -3.46304,-2.707458 -1.47088,-1.164758 -3.70143,-2.92756 -4.95676,-3.917339 -1.25533,-0.98978 -2.67975,-2.124895 -3.16535,-2.522473 -0.48559,-0.397576 -1.78198,-1.421223 -2.88085,-2.274775 -4.46589,-3.46891 -7.67211,-5.980148 -8.07636,-6.325714 -0.23537,-0.201201 -0.9415,-0.760193 -1.56917,-1.242179 -0.62767,-0.481995 -2.42508,-1.875872 -3.99425,-3.0975015 -1.56918,-1.2216393 -2.97074,-2.2251157 -3.11457,-2.2299413 -0.3397,-0.011367 -4.21254,-4.0538699 32.17955,33.5890978 23.75819,24.574795 32.15667,33.435919 32.0254,33.789498 -0.0979,0.263588 -0.17795,0.534754 -0.17795,0.602578 0,0.06776 -0.26687,0.123313 -0.59309,0.123313 -0.40679,0 -10.42586,-10.164197 -31.8991,-32.361173 -17.21832,-17.798644 -31.52334,-32.543284 -31.78894,-32.765861 -0.26835,-0.224872 -0.48291,-0.269672 -0.48291,-0.100857 0,0.293187 0.7935,1.386643 4.62725,6.376276 0.98566,1.282822 2.16205,2.875081 2.61424,3.538352 0.45219,0.663271 0.90226,1.272291 1.0002,1.353378 0.0979,0.08113 0.56028,0.678182 1.0275,1.326876 0.46722,0.648706 1.00628,1.378486 1.19792,1.621747 0.19165,0.243259 2.18098,2.897024 4.42072,5.897256 2.23977,3.000221 4.22899,5.653984 4.42051,5.897245 0.19153,0.243272 1.3831,1.83553 2.64793,3.538352 3.63896,4.899074 5.55272,7.442184 5.86089,7.788296 0.15691,0.176238 0.81635,1.050216 1.46541,1.942171 1.8223,2.504216 6.13962,8.321779 7.09372,9.558686 0.47075,0.610301 1.18096,1.528892 1.57827,2.041312 1.39314,1.796815 2.27332,3.106339 2.27332,3.382219 0,0.153145 -0.20608,0.455192 -0.45795,0.671239 -0.39702,0.340539 -0.61525,0.215477 -1.64049,-0.940244 -0.65041,-0.733169 -1.66226,-1.988364 -2.24857,-2.789312 -1.63943,-2.239627 -5.62079,-7.588879 -6.05996,-8.142022 -0.47363,-0.596537 -3.77135,-5.022341 -5.5605,-7.462623 -0.71139,-0.970277 -1.42878,-1.915779 -1.59424,-2.101122 -0.16545,-0.185332 -1.4493,-1.887797 -2.85304,-3.78325 -1.40372,-1.895454 -3.17088,-4.267152 -3.927,-5.27045 -3.06379,-4.065393 -3.78568,-5.02884 -4.33131,-5.780799 -0.31385,-0.432491 -1.85449,-2.486786 -3.42365,-4.565086 -3.30053,-4.37143 -3.56283,-4.723861 -6.41212,-8.615925 -1.17291,-1.602154 -2.35271,-3.178398 -2.62177,-3.502744 -0.26907,-0.324347 -0.75379,-0.908571 -1.07712,-1.298281 -1.16261,-1.4011986 -0.58192,0.147865 1.21358,3.237453 0.99081,1.70494 1.8868,3.292985 1.99109,3.52899 0.10427,0.235995 0.51242,0.959847 0.90697,1.608541 0.39455,0.648705 0.80673,1.378486 0.91596,1.621746 0.10924,0.243261 0.57747,1.105737 1.04052,1.916605 0.94819,1.660462 4.56697,8.150323 5.67238,10.172767 1.24927,2.285663 2.65031,4.780028 4.02992,7.174785 0.7318,1.270251 1.33054,2.363084 1.33054,2.428524 0,0.13478 2.58764,4.714834 3.60833,6.386663 0.36917,0.604674 0.67123,1.171245 0.67123,1.25903 0,0.08782 0.29937,0.654555 0.66529,1.259486 0.3659,0.604929 1.05377,1.829655 1.5286,2.721621 0.47482,0.891955 1.71628,3.122476 2.75879,4.95669 1.0425,1.834226 2.20155,3.890894 2.57568,4.570381 0.37412,0.679474 1.41733,2.56229 2.31822,4.184036 0.90091,1.621747 1.96422,3.54573 2.36294,4.27551 0.39872,0.729792 1.21693,2.158529 1.81827,3.174966 0.60133,1.016449 1.09333,1.909517 1.09333,1.984597 0,0.07512 0.44935,0.8625 0.99857,1.749818 0.54921,0.887318 0.99856,1.680187 0.99856,1.761932 0,0.08169 0.36688,0.7917 0.81529,1.577681 0.4484,0.785982 1.13699,2.01919 1.53019,2.740456 0.3932,0.721267 1.45677,2.615762 2.36353,4.209981 l 1.64865,2.898595 -0.58231,0.601833 c -0.7379,0.762612 -0.94846,0.615026 -2.08299,-1.460074 -0.50983,-0.932498 -1.14946,-2.093524 -1.42141,-2.580044 -0.89678,-1.604339 -3.73856,-6.708893 -6.31994,-11.352213 -1.39744,-2.513701 -2.65998,-4.769398 -2.80562,-5.012668 -0.267,-0.445955 -0.83385,-1.460699 -5.76499,-10.320186 -1.48938,-2.675885 -3.45241,-6.192115 -4.3623,-7.813861 -0.90989,-1.621747 -2.04224,-3.678415 -2.51632,-4.570369 -0.47409,-0.891967 -1.5448,-2.799722 -2.37934,-4.23947 -0.83457,-1.439747 -1.51738,-2.652537 -1.51738,-2.695087 0,-0.04257 -1.04495,-1.916415 -2.32209,-4.164121 -1.27717,-2.247716 -2.64329,-4.683842 -3.03587,-5.413633 -0.91967,-1.709653 -3.41952,-6.207919 -3.76893,-6.781845 -0.1481,-0.243261 -0.7012,-1.238423 -1.22914,-2.211464 -0.52792,-0.973052 -1.44658,-2.631652 -2.04145,-3.685781 -0.59488,-1.054139 -1.33819,-2.381015 -1.6518,-2.948634 -2.17523,-3.937098 -2.64368,-4.717798 -2.83078,-4.717798 -0.26826,0 0.34168,2.067813 1.17416,3.98065 0.35291,0.810868 0.74414,1.739688 0.86942,2.064036 0.12528,0.324346 0.44691,1.103475 0.71471,1.731396 0.54248,1.271889 3.32275,8.149643 4.12752,10.210535 0.94371,2.416678 2.75917,6.913169 3.21438,7.961291 0.59047,1.359585 3.23233,7.880025 3.62097,8.937007 0.16749,0.455549 0.6258,1.554167 1.01845,2.441361 0.39267,0.887186 0.71393,1.682763 0.71393,1.76794 0,0.08515 0.24333,0.711516 0.54076,1.39186 0.29742,0.680344 1.14537,2.7629 1.88433,4.627907 0.73894,1.865007 1.573,3.921674 1.85344,4.570369 0.28044,0.648704 0.98412,2.373649 1.56372,3.833221 0.5796,1.459562 1.23543,3.084998 1.45739,3.612061 2.24008,5.31924 2.50833,6.560694 1.41767,6.560694 -0.6341,0 -1.12818,-0.929276 -2.99485,-5.632799 -2.88668,-7.27368 -4.86583,-12.144046 -5.30262,-13.048939 -0.23091,-0.478385 -0.41984,-0.978168 -0.41984,-1.11062 0,-0.13245 -0.30978,-0.941367 -0.68839,-1.797593 -0.3786,-0.856213 -1.35826,-3.215364 -2.17697,-5.242544 -0.81874,-2.027181 -2.29235,-5.676107 -3.27471,-8.10872 -0.98237,-2.432625 -2.00074,-4.953693 -2.26305,-5.602398 -0.26233,-0.648694 -0.64915,-1.577515 -0.85962,-2.064035 -0.21045,-0.486521 -0.98594,-2.410503 -1.7233,-4.27551 -0.73736,-1.865007 -1.62847,-4.05436 -1.98025,-4.865228 -0.35178,-0.810878 -1.44701,-3.530984 -2.43384,-6.044686 -0.98682,-2.5137 -1.90549,-4.696423 -2.04147,-4.850496 -0.136,-0.154059 -0.24726,-0.462091 -0.24726,-0.6845 0,-0.222408 -0.19257,-0.603414 -0.42795,-0.846674 -0.56083,-0.579622 -0.54613,-0.448351 0.31867,2.843318 0.40477,1.54066 0.84318,3.265604 0.97425,3.833211 0.13107,0.567607 0.3641,1.496427 0.51786,2.064036 0.849,3.134265 2.74518,10.396568 4.19588,16.070022 0.3732,1.459561 1.19782,4.644078 1.83248,7.076704 0.63466,2.432613 1.59717,6.147881 2.13889,8.256149 0.54173,2.108266 1.3187,5.093755 1.7266,6.634403 1.2343,4.662066 1.27583,4.824284 1.54779,6.044686 0.14455,0.648706 0.38813,1.643868 0.54128,2.211475 1.02002,3.780442 2.16605,8.162905 4.47227,17.10203 0.56482,2.189354 1.33851,5.174841 1.71926,6.634415 0.38078,1.459562 1.07126,4.113324 1.53443,5.897245 0.46315,1.783919 1.03403,3.973254 1.26863,4.865234 0.37304,1.41838 0.37454,1.67658 0.012,2.05904 -0.55932,0.58996 -1.32381,0.0833 -1.59182,-1.05517 -0.1109,-0.47105 -0.32947,-1.32086 -0.48571,-1.88847 -0.15624,-0.5676 -0.53692,-2.027163 -0.84598,-3.243476 -0.30906,-1.216301 -0.77695,-3.007599 -1.03977,-3.980639 -0.2628,-0.973053 -0.84661,-3.228749 -1.29735,-5.012669 -0.79518,-3.147216 -2.15489,-8.42004 -3.57368,-13.858548 -1.81959,-6.974799 -2.4977,-9.597213 -2.97362,-11.499643 -0.28399,-1.135214 -0.79677,-3.12554 -1.1395,-4.422939 -1.35845,-5.142289 -2.52986,-9.638347 -3.68749,-14.153406 -1.21352,-4.732911 -3.4255,-13.244468 -4.06136,-15.627713 -0.96542,-3.61849 -2.58206,-9.999459 -2.72672,-10.762495 -0.26009,-1.371855 -1.02657,-3.682572 -1.41553,-4.267397 -0.45426,-0.683052 -0.47872,-0.394468 -0.12918,1.525414 0.23879,1.311463 0.3743,2.298591 1.17588,8.565531 0.16076,1.256844 0.59936,4.540881 0.97468,7.297842 0.37531,2.756972 0.82951,6.273201 1.0093,7.813861 0.17979,1.54066 0.44267,3.597327 0.58417,4.570368 0.35201,2.420635 0.75486,5.415082 1.13056,8.403592 0.1733,1.378486 0.49011,3.766868 0.70403,5.307526 0.21391,1.540661 0.53547,3.995385 0.71455,5.454957 0.44778,3.649429 0.85311,6.746339 1.15774,8.84588 1.35681,9.351134 1.38967,10.261822 0.3758,10.4111 -0.76734,0.112971 -0.81708,-0.04937 -1.3832,-4.513845 -0.24676,-1.946093 -0.57774,-4.467171 -0.73552,-5.602397 -0.31926,-2.297353 -0.65023,-4.945077 -1.08725,-8.698438 -0.1605,-1.378475 -0.49478,-3.83321 -0.74284,-5.454957 -0.24805,-1.621746 -0.58304,-4.010127 -0.7444,-5.307527 -0.16136,-1.297388 -0.4082,-3.287714 -0.54851,-4.42294 -0.14031,-1.135214 -0.37973,-2.992854 -0.53204,-4.128069 -0.1523,-1.135226 -0.40724,-3.125551 -0.56653,-4.422939 -0.15927,-1.2974 -0.35353,-2.756972 -0.43169,-3.243493 -0.0782,-0.486521 -0.34693,-2.410503 -0.59729,-4.27551 -0.25035,-1.865006 -0.57786,-4.109659 -0.72779,-4.988129 -0.14992,-0.878458 -0.27259,-2.095707 -0.27259,-2.704984 0,-0.609276 -0.12126,-1.748168 -0.26946,-2.530862 -0.14819,-0.782706 -0.41537,-2.550946 -0.59369,-3.929432 -0.5184,-4.00712 -0.61846,-4.483944 -0.88354,-4.20998 -0.13865,0.143294 -0.28062,20.927739 -0.32087,46.978888 l -0.0723,46.721888 -0.58237,0.0862 c -0.32028,0.0473 -0.67335,-0.007 -0.78458,-0.12286 z M 21.286819,8.1679883 C 20.906054,7.7331556 20.916549,7.627618 21.384026,7.190378 21.672259,6.9207947 22.24472,6.7002244 22.656162,6.7002244 c 0.411443,0 1.364237,-0.1211955 2.117315,-0.269327 0.753087,-0.1481317 2.524726,-0.4202781 3.936982,-0.604774 1.412255,-0.1844958 3.530638,-0.465948 4.707518,-0.625458 C 35.524475,4.9151678 36.305629,4.8029881 42.262406,3.930492 43.910038,3.6891707 46.413582,3.343237 47.825838,3.1617724 49.238094,2.980308 51.099702,2.7123739 51.962748,2.5663711 52.825793,2.420368 54.815789,2.1450264 56.384962,1.9544992 57.954135,1.763972 60.84284,1.3489663 62.804306,1.0322632 66.081244,0.50316092 80.13761,-0.25250973 80.462217,0.08297281 c 0.06932,0.07164743 -0.312607,0.13497334 -0.848739,0.14071941 -0.536136,0.005795 -1.295757,0.20007812 -1.688051,0.43184636 -0.392293,0.23176822 -1.316779,0.42609772 -2.054414,0.43184492 -0.737632,0.0058 -1.957308,0.1329082 -2.710388,0.2825801 -0.753081,0.1496728 -2.588914,0.4272065 -4.079627,0.6167418 -1.490715,0.1895364 -3.457071,0.4725677 -4.369684,0.6289573 -1.546737,0.2650476 -2.990498,0.466639 -8.041047,1.1227217 -1.098422,0.1426931 -2.960031,0.3988698 -4.136911,0.5692679 -1.17688,0.1704092 -3.102683,0.4424445 -4.279562,0.6045176 -1.17688,0.1620733 -3.61623,0.5080739 -5.42078,0.768909 C 36.579944,6.5848908 33.207111,7.055564 29.281068,7.5722191 28.025729,7.7374239 25.809515,8.048732 24.356147,8.2640197 21.961641,8.6187131 21.673606,8.6097085 21.286818,8.1679545 Z M 185.4851,7.5796747 C 182.35282,7.1940111 178.59351,6.7130293 176.49802,6.4298163 175.39959,6.2813616 172.3825,5.8842415 169.79337,5.5473237 167.20423,5.2103945 164.18715,4.8052838 163.08872,4.6470554 160.46463,4.2690704 154.62011,3.516332 150.67798,3.048612 150.12877,2.983417 148.13878,2.7117833 146.25577,2.4449081 140.11733,1.574926 138.30036,1.3421003 136.09835,1.1433407 c -1.19291,-0.1076773 -2.35164,-0.35250678 -2.57497,-0.54407265 -0.22336,-0.19156684 -1.04477,-0.39676136 -1.82536,-0.45598948 -0.78061,-0.05923259 1.7262,-0.07378716 5.57068,-0.0323634 4.41705,0.0475978 7.93509,0.23377995 9.55769,0.50581745 1.41225,0.23677303 3.7874,0.58141638 5.27812,0.76587428 5.67903,0.7027088 7.32395,0.9255703 8.86159,1.2006368 0.87251,0.1560663 2.01318,0.283759 2.53486,0.283759 0.52166,0 1.73361,0.1316824 2.69321,0.292619 1.85527,0.311152 11.15702,1.5804673 15.43932,2.1068515 1.41224,0.1735854 3.59484,0.4757996 4.85017,0.6715736 2.13497,0.3329616 2.28243,0.4024248 2.28243,1.0750794 0,0.8430861 -0.43082,0.9174861 -3.28099,0.5665485 z"
       id="path4228" /></g></svg>
